<?xml version="1.0" encoding="utf-8"?>
<!-- Generator: Adobe Illustrator 15.0.0, SVG Export Plug-In . SVG Version: 6.00 Build 0)  -->
<!DOCTYPE svg PUBLIC "-//W3C//DTD SVG 1.1//EN" "http://www.w3.org/Graphics/SVG/1.1/DTD/svg11.dtd">
<svg version="1.1" id="Capa_1" xmlns="http://www.w3.org/2000/svg" xmlns:xlink="http://www.w3.org/1999/xlink" x="0px" y="0px"
	 width="30px" height="10px" viewBox="0 0 30 10" enable-background="new 0 0 30 10" xml:space="preserve">
<g>
	<g>
		<defs>
			<rect id="SVGID_1_" x="-18.371" y="1.375" width="66.742" height="9"/>
		</defs>
		<clipPath id="SVGID_2_">
			<use xlink:href="#SVGID_1_"  overflow="visible"/>
		</clipPath>
		<g clip-path="url(#SVGID_2_)">
			<text transform="matrix(0.8229 0 0 1 0.0933 4.2686)"><tspan x="0" y="0" font-family="'Lato-Light'" font-size="2.9676">R</tspan><tspan x="1.793" y="0" font-family="'Lato-Light'" font-size="2.9676">ODOLFO VALGUA</tspan><tspan x="26.791" y="0" font-family="'Lato-Light'" font-size="2.9676">RNER</tspan><tspan x="34.332" y="0" font-family="'Lato-Light'" font-size="2.9676">A</tspan></text>
		</g>
	</g>
	<g>
		<defs>
			<rect id="SVGID_3_" x="-18.371" y="1.375" width="66.742" height="9"/>
		</defs>
		<clipPath id="SVGID_4_">
			<use xlink:href="#SVGID_3_"  overflow="visible"/>
		</clipPath>
		<g clip-path="url(#SVGID_4_)">
			<text transform="matrix(0.8229 0 0 1 29.9033 4.2676)" font-family="'Calibri'" font-size="2.8695"> </text>
		</g>
	</g>
	<g>
		<defs>
			<rect id="SVGID_5_" x="-18.371" y="1.375" width="66.742" height="9"/>
		</defs>
		<clipPath id="SVGID_6_">
			<use xlink:href="#SVGID_5_"  overflow="visible"/>
		</clipPath>
		<g clip-path="url(#SVGID_6_)">
			<text transform="matrix(0.8229 0 0 1 0.5581 7.4307)"><tspan x="0" y="0" font-family="'Calibri'" font-size="2.0356">D</tspan><tspan x="1.253" y="0" font-family="'Calibri'" font-size="2.0356">E</tspan><tspan x="2.257" y="0" font-family="'Calibri'" font-size="2.0356">SARROLL</tspan><tspan x="9.625" y="0" font-family="'Calibri'" font-size="2.0356">A</tspan><tspan x="10.824" y="0" font-family="'Calibri'" font-size="2.0356">DOR </tspan></text>
		</g>
	</g>
	<g>
		<defs>
			<rect id="SVGID_7_" x="-18.371" y="1.375" width="66.742" height="9"/>
		</defs>
		<clipPath id="SVGID_8_">
			<use xlink:href="#SVGID_7_"  overflow="visible"/>
		</clipPath>
		<g clip-path="url(#SVGID_8_)">
			<text transform="matrix(0.8229 0 0 1 12.9106 7.4307)"><tspan x="0" y="0" font-family="'Calibri'" font-size="2.0356">F</tspan><tspan x="0.956" y="0" font-family="'Calibri'" font-size="2.0356">U</tspan><tspan x="2.255" y="0" font-family="'Calibri'" font-size="2.0356">LL </tspan><tspan x="4.433" y="0" font-family="'Calibri'" font-size="2.0356">S</tspan><tspan x="5.391" y="0" font-family="'Calibri'" font-size="2.0356">T</tspan><tspan x="6.375" y="0" font-family="'Calibri'" font-size="2.0356">A</tspan><tspan x="7.555" y="0" font-family="'Calibri'" font-size="2.0356">C</tspan><tspan x="8.659" y="0" font-family="'Calibri'" font-size="2.0356">K</tspan></text>
		</g>
	</g>
	<g>
		<defs>
			<rect id="SVGID_9_" x="-18.371" y="1.375" width="66.742" height="9"/>
		</defs>
		<clipPath id="SVGID_10_">
			<use xlink:href="#SVGID_9_"  overflow="visible"/>
		</clipPath>
		<g clip-path="url(#SVGID_10_)">
			<text transform="matrix(0.8229 0 0 1 20.9209 7.4307)" font-family="'Calibri'" font-size="2.0356"> </text>
		</g>
	</g>
	<g>
		<defs>
			<rect id="SVGID_11_" x="-18.371" y="1.375" width="66.742" height="9"/>
		</defs>
		<clipPath id="SVGID_12_">
			<use xlink:href="#SVGID_11_"  overflow="visible"/>
		</clipPath>
		<g clip-path="url(#SVGID_12_)">
			<text transform="matrix(0.8229 0 0 1 21.3037 7.4307)"><tspan x="0" y="0" font-family="'Calibri'" font-size="2.0356">J</tspan><tspan x="0.638" y="0" font-family="'Calibri'" font-size="2.0356">AVA</tspan><tspan x="4.15" y="0" font-family="'Calibri'" font-size="2.0356">S</tspan><tspan x="5.105" y="0" font-family="'Calibri'" font-size="2.0356">C</tspan><tspan x="6.184" y="0" font-family="'Calibri'" font-size="2.0356">RI</tspan><tspan x="7.803" y="0" font-family="'Calibri'" font-size="2.0356">P</tspan><tspan x="8.88" y="0" font-family="'Calibri'" font-size="2.0356">T</tspan></text>
		</g>
	</g>
	<g>
		<text transform="matrix(0.8229 0 0 1 29.4404 7.4307)" font-family="'Lato-Regular'" font-size="2.2564"> </text>
	</g>
</g>
</svg>
