<?xml version="1.0" encoding="utf-8"?>
<!-- Generator: Adobe Illustrator 15.0.0, SVG Export Plug-In . SVG Version: 6.00 Build 0)  -->
<!DOCTYPE svg PUBLIC "-//W3C//DTD SVG 1.1//EN" "http://www.w3.org/Graphics/SVG/1.1/DTD/svg11.dtd">
<svg version="1.1" id="Capa_1" xmlns="http://www.w3.org/2000/svg" xmlns:xlink="http://www.w3.org/1999/xlink" x="0px" y="0px"
	 width="2270px" height="2500px" viewBox="0 0 2270 2500" enable-background="new 0 0 2270 2500" xml:space="preserve">
<g>
	<path fill="#ffe66a" d="M1032.838,31.738c61.72-35.328,142.109-35.488,203.776,0c310.239,175.301,620.576,350.328,930.762,525.736
		c58.343,32.863,97.367,97.792,96.773,165.018v1054.681c0.435,70.009-42.446,136.489-103.998,168.608
		c-309.22,174.335-618.28,348.883-927.447,523.218c-62.996,36.02-145,33.245-206.028-5.727
		c-92.704-53.741-185.567-107.217-278.28-160.904c-18.944-11.294-40.301-20.283-53.679-38.652
		c11.826-15.939,32.97-17.926,50.15-24.885c38.697-12.305,74.238-32.057,109.787-51.224c8.989-6.152,19.965-3.794,28.582,1.711
		c79.273,45.452,157.846,92.225,237.385,137.243c16.968,9.796,34.148-3.21,48.652-11.295
		c303.439-171.498,607.252-342.349,910.639-513.9c11.241-5.408,17.455-17.341,16.542-29.654
		c0.213-347.917,0.054-695.896,0.106-1043.813c1.285-13.971-6.8-26.817-19.433-32.535
		c-308.147-173.537-616.135-347.34-924.229-520.922c-10.927-7.512-25.347-7.533-36.295-0.053
		C808.51,348.023,500.577,521.986,192.482,695.515c-12.589,5.727-21.037,18.359-19.539,32.385c0.054,347.916,0,695.896,0,1043.865
		c-1.094,12.306,5.592,23.99,16.756,29.281c82.216,46.623,164.539,92.917,246.809,139.38
		c46.348,24.946,103.253,39.77,154.317,20.656c45.062-16.162,76.648-62.146,75.789-109.991
		c0.425-345.887-0.213-691.826,0.319-1037.66c-1.126-15.354,13.439-28.04,28.368-26.596c39.504-0.266,79.061-0.531,118.564,0.106
		c16.489-0.372,27.837,16.161,25.798,31.632c-0.16,348.076,0.425,696.161-0.267,1044.237
		c0.106,92.766-38.005,193.706-123.812,239.096c-105.709,54.761-236.365,43.147-340.798-9.361
		c-90.408-45.124-176.685-98.378-265.488-146.721c-61.711-31.941-104.379-98.688-103.945-168.644V722.491
		c-0.646-68.617,39.93-134.726,100.089-167.11C414.61,380.904,723.723,206.294,1032.838,31.738z"/>
	<path fill="#ffe66a" d="M1302.553,762.322c134.841-8.679,279.193-5.142,400.532,61.286
		c93.945,50.904,146.028,157.739,147.686,262.109c-2.624,14.078-17.34,21.845-30.779,20.878
		c-39.123-0.053-78.254,0.532-117.377-0.266c-16.596,0.638-26.24-14.663-28.324-29.335c-11.241-49.938-38.475-99.397-85.479-123.484
		c-72.154-36.126-155.815-34.309-234.495-33.555c-57.438,3.05-119.202,8.022-167.863,41.8
		c-37.358,25.585-48.705,77.233-35.372,118.829c12.57,29.867,47.048,39.504,75.257,48.387c162.5,42.5,334.698,38.271,494.096,94.202
		c65.993,22.802,130.55,67.128,153.139,136.224c29.548,92.606,16.596,203.298-49.291,277.642
		c-53.431,61.18-131.25,94.478-208.865,112.563c-103.254,23.022-210.407,23.607-315.266,13.387
		c-98.6-11.241-201.206-37.146-277.323-104.326c-65.088-56.517-96.879-144.575-93.723-229.566
		c0.753-14.353,15.044-24.361,28.794-23.183c39.397-0.319,78.794-0.426,118.191,0.054c15.736-1.126,27.402,12.473,28.209,27.305
		c7.27,47.58,25.151,97.518,66.641,125.727c80.07,51.658,180.54,48.121,272.225,49.566c75.958-3.369,161.224-4.389,223.21-54.593
		c32.703-28.635,42.393-76.542,33.555-117.757c-9.574-34.796-45.976-51.011-77.234-61.613
		c-160.417-50.745-334.539-32.332-493.404-89.717c-64.494-22.792-126.861-65.887-151.64-132.146
		c-34.575-93.776-18.732-209.77,54.06-281.604c70.976-71.454,173.432-98.972,270.843-108.821V762.322z"/>
</g>
</svg>
