<?xml version="1.0" encoding="utf-8"?>
<!-- Generator: Adobe Illustrator 15.0.0, SVG Export Plug-In . SVG Version: 6.00 Build 0)  -->
<!DOCTYPE svg PUBLIC "-//W3C//DTD SVG 1.1//EN" "http://www.w3.org/Graphics/SVG/1.1/DTD/svg11.dtd">
<svg version="1.1" id="Capa_1" xmlns="http://www.w3.org/2000/svg" xmlns:xlink="http://www.w3.org/1999/xlink" x="0px" y="0px"
	 width="30px" height="20px" viewBox="0 0 30 20" enable-background="new 0 0 30 20" xml:space="preserve">
<g>
	<g>
		<path fill="#FFFFFF" stroke="#FFFFFF" stroke-width="0.25" stroke-miterlimit="10" d="M2.493,16.012
			c-2.414-2.235-0.593-5.46,0.51-7.767c1.68-3.516,5.138-4.866,8.597-5.754c3.887-1,10.207-2.485,12.943,1.951
			c1.286,2.087,6.201,12.3,0.679,12.851c-0.718,0.072-0.724,1.227,0,1.154c4.487-0.449,5.061-2.694,3.762-6.946
			c-1.561-5.104-3.899-11.4-9.79-11.218C13.432,0.458,6.711,1.504,2.854,6.267c-2.185,2.699-4.055,7.875-1.159,10.559
			C2.233,17.325,3.033,16.514,2.493,16.012L2.493,16.012z"/>
	</g>
</g>
<g>
	<path fill="#FFFFFF" d="M4.72,11.826"/>
	<g>
		<path fill="#FFFFFF" d="M5.704,12.802c1.31,0,1.31-1.951,0-1.951S4.391,12.802,5.704,12.802L5.704,12.802z"/>
	</g>
</g>
<g>
	<path fill="#FFFFFF" d="M13.704,15.285"/>
	<g>
		<path fill="#FFFFFF" d="M14.412,15.887c1.31,0,1.31-1.951,0-1.951S13.099,15.887,14.412,15.887L14.412,15.887z"/>
	</g>
</g>
<g>
	<path fill="#FFFFFF" d="M20.662,5.035"/>
	<g>
		<path fill="#FFFFFF" d="M20.329,6.504c1.311,0,1.311-1.951,0-1.951C19.02,4.553,19.017,6.504,20.329,6.504L20.329,6.504z"/>
	</g>
</g>
<g>
	<path fill="#FFFFFF" d="M23.246,12.236"/>
	<g>
		<path fill="#FFFFFF" d="M23.038,13.213c1.31,0,1.31-1.951,0-1.951C21.728,11.262,21.725,13.213,23.038,13.213L23.038,13.213z"/>
	</g>
</g>
<g>
	<path fill="#FFFFFF" d="M8.72,6.243"/>
	<g>
		<path fill="#FFFFFF" d="M9.704,7.219c1.31,0,1.31-1.951,0-1.951S8.391,7.219,9.704,7.219L9.704,7.219z"/>
	</g>
</g>
</svg>
