<?xml version="1.0" encoding="utf-8"?>
<!-- Generator: Adobe Illustrator 15.0.0, SVG Export Plug-In . SVG Version: 6.00 Build 0)  -->
<!DOCTYPE svg PUBLIC "-//W3C//DTD SVG 1.1//EN" "http://www.w3.org/Graphics/SVG/1.1/DTD/svg11.dtd">
<svg version="1.1" xmlns="http://www.w3.org/2000/svg" xmlns:xlink="http://www.w3.org/1999/xlink" x="0px" y="0px" width="30px"
	 height="30px" viewBox="0 0 30 30" enable-background="new 0 0 30 30" xml:space="preserve">
<g id="Capa_1">
	<g>
		<path fill="#FFFFFF" d="M30.422,18.683c-0.28-0.895-0.786-1.773-1.526-2.302c-1.431-1.019-3.102-1.549-4.713-2.133
			c-0.392-0.146-0.784-0.299-1.142-0.526c-0.317-0.202-0.437-0.614-0.51-0.978c-0.032-0.193-0.05-0.39-0.06-0.583
			c1.167-1.718,1.945-4.521,1.945-6.817c0-3.586-1.89-4.585-4.222-4.585c-0.884,0-1.705,0.146-2.381,0.522
			c1.545,1.273,2.365,3.357,2.365,6.166c0,3.236-1.02,6.964-2.554,9.488c0.006,0.029,0.008,0.058,0.014,0.087
			c0.041,0.195,0.073,0.298,0.093,0.347c0.339,0.204,0.743,0.362,1.192,0.53l0.676,0.245c1.998,0.709,4.062,1.438,5.919,2.762
			c0.304,0.213,0.584,0.375,0.852,0.74h4.436C30.824,20.914,30.705,19.612,30.422,18.683z"/>
	</g>
	<path fill="#FFFFFF" d="M26.776,25.262c-0.369-1.196-1.044-2.379-2.034-3.08c-1.907-1.36-4.134-2.077-6.282-2.853
		c-0.518-0.195-1.045-0.405-1.521-0.705c-0.42-0.272-0.581-0.821-0.677-1.309c-0.044-0.257-0.073-0.521-0.085-0.776
		c1.558-2.293,2.593-6.028,2.593-9.092c0-4.782-2.516-6.115-5.621-6.115c-3.104,0-5.62,1.332-5.62,6.114
		c0,3.173,1.108,7.066,2.763,9.328c-0.017,0.176-0.036,0.357-0.065,0.534c-0.102,0.484-0.258,1.03-0.682,1.3
		c-0.473,0.304-1.001,0.494-1.52,0.691c-2.149,0.775-4.374,1.46-6.28,2.817c-0.992,0.703-1.665,1.949-2.035,3.146
		c-0.382,1.24-0.538,2.79-0.516,3.98h14.048h14.05C27.317,28.052,27.157,26.502,26.776,25.262z"/>
</g>
<g id="Capa_2">
</g>
</svg>
